<?xml version="1.0" standalone="no"?><!DOCTYPE svg PUBLIC "-//W3C//DTD SVG 1.1//EN"
        "http://www.w3.org/Graphics/SVG/1.1/DTD/svg11.dtd">
<svg class="icon" width="200px" height="200.00px" viewBox="0 0 1024 1024" version="1.1"
     xmlns="http://www.w3.org/2000/svg">
    <path d="M617.13 62.805c67.865 0 122.88 55.016 122.88 122.88 0 67.865-55.015 122.88-122.88 122.88H486.06c-53.443 0-98.917-34.117-115.831-81.76l-110.815-0.119-0.002 636.216 571.446 0.169V226.836l-9.257 0.001c-22.335 0-40.495-17.877-40.951-40.103l-0.009-0.857c0-22.335 17.877-40.495 40.103-40.95l0.857-0.01h11.99c43.297 0 78.479 34.75 79.178 77.88l0.01 1.31v640.21l0.01 0.13c0.024 0.387 0.024 0.655 0.024 0.948l-0.022 0.442c-0.013 43.304-34.784 78.48-77.904 79.145l-1.309 0.01-576.928-0.17c-43.272-0.036-78.423-34.765-79.144-77.891l-0.012-1.31v-641.75c0.046-43.297 34.832-78.442 77.964-79.096l1.31-0.01 113.347 0.12c16.824-47.81 62.382-82.08 115.945-82.08H617.13z m10.923 595.286c22.622 0 40.96 18.338 40.96 40.96 0 22.621-18.338 40.96-40.96 40.96h-163.84c-22.621 0-40.96-18.339-40.96-40.96 0-22.622 18.339-40.96 40.96-40.96h163.84z m-81.92-305.835c22.622 0 40.96 18.338 40.96 40.96v40.959l40.96 0.001c22.622 0 40.96 18.338 40.96 40.96s-18.338 40.96-40.96 40.96l-40.96-0.001v40.961c0 22.622-18.338 40.96-40.96 40.96-22.621 0-40.96-18.338-40.96-40.96v-40.961l-40.96 0.001c-22.621 0-40.96-18.338-40.96-40.96s18.339-40.96 40.96-40.96l40.96-0.001v-40.959c0-22.622 18.339-40.96 40.96-40.96z m70.998-207.53H486.059c-22.622 0-40.96 18.338-40.96 40.96 0 22.335 17.877 40.494 40.103 40.95l0.857 0.01H617.13c22.621 0 40.96-18.34 40.96-40.96 0-22.336-17.877-40.496-40.103-40.952l-0.857-0.009z"
         fill="white"/>
</svg>