<?xml version="1.0" standalone="no"?><!DOCTYPE svg PUBLIC "-//W3C//DTD SVG 1.1//EN"
        "http://www.w3.org/Graphics/SVG/1.1/DTD/svg11.dtd">
<svg class="icon" width="200px" height="200.00px" viewBox="0 0 1024 1024" version="1.1"
     xmlns="http://www.w3.org/2000/svg">
    <path d="M64 160v576a96.11 96.11 0 0 0 96 96h704a96.11 96.11 0 0 0 96-96V160a96.11 96.11 0 0 0-96-96H160a96.11 96.11 0 0 0-96 96z m64 0a32 32 0 0 1 32-32h704a32 32 0 0 1 32 32v576a32 32 0 0 1-32 32H160a32 32 0 0 1-32-32V160zM992 896H32a32 32 0 0 0 0 64h960a32 32 0 0 0 0-64z"
          fill="white"/>
    <path d="M201.37 566.63a439 439 0 0 0 621.25 0 32 32 0 0 0 4.81-39.09l-192-320A32 32 0 0 0 608 192H417.22a32.06 32.06 0 0 0-30.46 19c-10.3 18.46-104.67 175.13-190 316.15a32 32 0 0 0 4.61 39.48z m146.46-165.82c28-46.43 50.22-83.46 66.13-110.07 8.8-14.74 15.74-26.41 20.65-34.74h155.27l169.4 282.33c-68.45 60.12-155.35 93-247.28 93s-178.77-32.81-247.21-92.9c17.73-29.43 50.56-83.72 83.04-137.62z"
          fill="white"/>
    <path d="M512 447.94a122.14 122.14 0 0 0 86.63-35.82 32 32 0 1 0-45.25-45.25 58.58 58.58 0 0 1-82.75 0 32 32 0 1 0-45.25 45.25A122.11 122.11 0 0 0 512 447.94zM662.63 513.61a32 32 0 1 0-45.25-45.25c-58.1 58.1-152.64 58.1-210.75 0a32 32 0 1 0-45.25 45.25 213.26 213.26 0 0 0 301.25 0z"
          fill="white"/>
</svg>