<?xml version="1.0" standalone="no"?><!DOCTYPE svg PUBLIC "-//W3C//DTD SVG 1.1//EN"
        "http://www.w3.org/Graphics/SVG/1.1/DTD/svg11.dtd">
<svg class="icon" width="200px" height="133.33px" viewBox="0 0 1536 1024" version="1.1"
     xmlns="http://www.w3.org/2000/svg">
    <path d="M925.73445833 925.38125h507.15v-25.36875h-507.15v25.3125z m355.05-50.68125h152.1V494.225h-152.1v380.475z m-177.6375 0h152.15625V595.75625H1103.14695833v279z m-177.4125 0h152.1V697.23125h-152.1v177.58125zM464.25945833 571.56875a77.5125 77.5125 0 1 0-0.45-45.05625H235.32195833a77.79375 77.79375 0 0 0-74.475-55.8A77.4 77.4 0 0 0 83.33445833 548.225a77.45625 77.45625 0 0 0 151.425 23.34375h229.5zM860.70945833 203.01875h63.1125v-45H860.70945833v45z m81.61875 0h63.1125v-45h-63.1125v45zM463.80945833 843.81875h63v-44.8875h-63v44.8875z m81.1125 0h63v-44.8875h-63v44.8875z m81.1125 0h63.1125v-44.8875H626.03445833v44.8875z"
          fill="white"/>
    <path d="M249.27195833 502.775h63v-45H249.27195833v45z m81.16875 0h63v-45h-63v45z m81.1125 0h63.05625v-45H411.55320833v45z m273.375 13.95h63.16875v-45h-63.1125v45z m81.225 0h63v-45h-63v45z m81.1125 0h63.05625v-45h-63.05625v45zM305.07195833 107.39375h63.05625v-45H305.07195833v45z m81.16875 0h63v-45h-63v45z m81.1125 0H530.52195833v-45H467.35320833v45z"
          fill="white"/>
    <path d="M163.99695833 228.89375a78.1875 78.1875 0 0 0 72.9-51.1875h177.75c9.3375 0 25.3125 6.69375 30.54375 13.95l105.4125 165.9375c13.89375 22.05 30.9375 35.15625 70.3125 35.15625h105.975a77.5125 77.5125 0 1 0 148.33125-31.55625 77.625 77.625 0 1 0-154.0125-14.00625H620.91570833c-11.3625 0-27.39375-6.69375-32.00625-13.95l-104.90625-165.375c-14.5125-23.23125-44.4375-34.14375-67.78125-34.14375H239.42820833A77.11875 77.11875 0 0 0 164.05320833 73.75625 77.4 77.4 0 0 0 86.42820833 151.26875a77.4 77.4 0 0 0 77.5125 77.625z"
          fill="white"/>
    <path d="M626.03445833 251.05625a78.075 78.075 0 0 0 71.8875-48.0375h145.2375v-45H702.64695833A78.075 78.075 0 0 0 626.70945833 96.03125c-42.975 0-77.56875 34.5375-77.56875 77.45625a77.00625 77.00625 0 0 0 76.95 77.625zM452.33445833 341.5625A77.34375 77.34375 0 0 0 374.82195833 263.9375 77.45625 77.45625 0 0 0 297.30945833 341.5625c0 42.91875 34.59375 77.56875 77.5125 77.56875a77.7375 77.7375 0 0 0 77.5125-77.625z m546.4125 146.8125a76.78125 76.78125 0 0 0-74.41875 56.3625h-144.73125c-23.23125 0-51.75 3.09375-67.66875 26.325l-105.525 157.05c-4.6125 7.3125-20.1375 14.0625-32.0625 14.0625H444.17820833a77.85 77.85 0 0 0-73.9125-54.84375 77.4 77.4 0 0 0-77.45625 77.56875c0 42.8625 34.59375 77.5125 77.45625 77.5125 35.15625 0 64.6875-23.2875 74.475-55.29375h128.7c23.7375 0 55.85625-11.41875 70.3125-33.69375l105.46875-157.5c0.50625-1.125 4.6125-5.23125 30.4875-5.23125h146.30625c10.29375 30.4875 39.2625 52.25625 73.35 52.25625a77.45625 77.45625 0 0 0 77.5125-77.625 78.525 78.525 0 0 0-78.075-76.95z"
          fill="white"/>
    <path d="M786.79695833 674.9a77.5125 77.5125 0 1 0 0 155.025c42.975 0 77.5125-34.59375 77.5125-77.45625 0-42.91875-34.5375-77.625-77.5125-77.625z"
          fill="white"/>
</svg>