<?xml version="1.0" standalone="no"?><!DOCTYPE svg PUBLIC "-//W3C//DTD SVG 1.1//EN"
        "http://www.w3.org/Graphics/SVG/1.1/DTD/svg11.dtd">
<svg class="icon" width="200px" height="200.00px" viewBox="0 0 1024 1024" version="1.1"
     xmlns="http://www.w3.org/2000/svg">
    <path d="M760.262857 0l10.203429 0.329143C851.405714 5.574857 915.428571 72.786286 915.428571 154.926857v310.088l-0.362285 4.057143C968.514286 482.881143 1008 531.489143 1008 589.333714v310.475429C1008 968.397714 952.483429 1024 884 1024h-744C71.516571 1024 16 968.397714 16 899.809143V403.048c0-57.803429 39.429714-106.384 92.821714-120.232a31.165714 31.165714 0 0 1-0.250285-3.948571V154.926857l0.330285-10.187428C114.155429 63.924571 181.468571 0 263.736 0h496.528zM354.819429 340.952H140l-7.230857 0.418286c-30.834286 3.586286-54.769143 29.833143-54.769143 61.677714v496.761143l0.417143 7.242286c3.581714 30.882286 29.787429 54.853714 61.582857 54.853714h744l7.230857-0.418286c30.834286-3.586286 54.769143-29.833143 54.769143-61.677714V589.333714l-0.417143-7.242285c-3.581714-30.882286-29.787429-54.853714-61.582857-54.853715H545.181714l-10.300571-0.427428c-37.502857-3.126857-71.793143-23.203429-92.874286-54.874286l-87.188571-130.982857zM325.714286 557.714286c17.042286 0 30.857143 13.866286 30.857143 30.971428V683.428571h92.457142l5.566858 0.497143C469.043429 686.538286 480 699.137143 480 714.285714c0 17.042286-13.866286 30.857143-30.971429 30.857143H356.571429v91.314286l-0.497143 5.566857C353.461714 856.472 340.862857 867.428571 325.714286 867.428571c-17.042286 0-30.857143-13.866286-30.857143-30.971428V745.142857h-93.6l-5.566857-0.497143C181.242286 742.033143 170.285714 729.434286 170.285714 714.285714c0-17.042286 13.866286-30.857143 30.971429-30.857143H294.857143v-94.742857l0.497143-5.566857C297.966857 568.670857 310.565714 557.714286 325.714286 557.714286zM760.262857 61.970286H263.737143l-8.966857 0.426285c-47.211429 4.502857-84.132571 44.211429-84.132572 92.530286L170.636571 278.857143h184.182858a61.973714 61.973714 0 0 1 51.224 27.113143l0.362285 0.537143 87.188572 130.984A61.974857 61.974857 0 0 0 545.181714 465.142857h308.181715V154.926857l-0.427429-8.953143c-4.510857-47.137143-44.28-84.003429-92.672-84.003428zM699.238857 309.714286l5.581714 0.497143C719.302857 312.824 730.285714 325.422857 730.285714 340.571429c0 17.042286-13.900571 30.857143-31.048 30.857142H575.048l-5.581714-0.497142C554.982857 368.318857 544 355.72 544 340.571429c0-17.042286 13.900571-30.857143 31.048-30.857143h124.189714z m0-122.285715l5.581714 0.497143C719.302857 190.538286 730.285714 203.137143 730.285714 218.285714c0 17.042286-13.900571 30.857143-31.048 30.857143H575.048l-5.581714-0.497143C554.982857 246.033143 544 233.434286 544 218.285714c0-17.042286 13.900571-30.857143 31.048-30.857143h124.189714z"
          fill="white"/>
</svg>