<?xml version="1.0" standalone="no"?><!DOCTYPE svg PUBLIC "-//W3C//DTD SVG 1.1//EN"
        "http://www.w3.org/Graphics/SVG/1.1/DTD/svg11.dtd">
<svg class="icon" width="200px" height="200.00px" viewBox="0 0 1024 1024" version="1.1"
     xmlns="http://www.w3.org/2000/svg">
    <path d="M503.88992 530.3296a25.23136 25.23136 0 0 1-20.48-10.48576c-56.7296-33.87392-196.5056-158.26944-203.03872-255.09888-2.43712-36.00384 12.61568-65.90464 43.47904-86.50752 25.45664-16.9984 50.7904-25.62048 75.24352-25.62048 51.26144 0 86.36416 35.96288 108.25728 70.4512 21.9136-34.48832 57.01632-70.4512 108.25728-70.4512 24.4736 0 49.78688 8.62208 75.28448 25.6 30.86336 20.5824 45.91616 50.52416 43.47904 86.50752-6.59456 98.11968-150.24128 224.78848-205.35296 256.49152a17.8176 17.8176 0 0 1-1.80224 1.72032c-5.50912 4.64896-12.77952 8.04864-19.82464 7.168a24.63744 24.63744 0 0 1-3.4816 0.2048z m-104.79616-327.0656c-14.29504 0-30.18752 5.75488-47.18592 17.1008-15.7696 10.52672-22.26176 23.1424-21.05344 41.00096 4.85376 71.94624 128.34816 184.85248 176.5376 213.93408 48.16896-29.12256 171.68384-142.06976 176.51712-213.97504 1.18784-17.8176-5.30432-30.43328-21.0944-40.96-16.9984-11.34592-32.89088-17.1008-47.2064-17.1008-47.5136 0-76.86144 65.04448-84.74624 84.97152-7.5776 19.31264-39.44448 19.31264-47.02208 0-7.86432-19.92704-37.21216-84.992-84.74624-84.992z m492.50304 296.52992H738.9184a25.31328 25.31328 0 0 1 0-50.64704h152.6784a25.31328 25.31328 0 0 1 0 50.64704z m0 63.71328H738.9184a25.31328 25.31328 0 0 1 0-50.64704h152.6784a25.31328 25.31328 0 0 1 0 50.64704zM212.23424 815.7184H29.02016a25.31328 25.31328 0 0 1 0-50.64704h183.21408a25.31328 25.31328 0 0 1 0 50.64704z m0 0A25.33376 25.33376 0 0 1 188.416 781.9264l45.81376-129.90464a25.2928 25.2928 0 1 1 47.67744 16.87552l-45.81376 129.92512a25.35424 25.35424 0 0 1-23.83872 16.87552z m152.71936 38.1952c-8.37632 0-16.52736-4.15744-21.38112-11.75552l-106.86464-168.09984a25.27232 25.27232 0 1 1 42.68032-27.17696l106.86464 168.12032a25.33376 25.33376 0 0 1-21.2992 38.912z m0 0a25.33376 25.33376 0 0 1-13.47584-46.83776l60.80512-38.17472a25.31328 25.31328 0 0 1 26.86976 42.92608l-60.80512 38.1952c-4.17792 2.62144-8.8064 3.8912-13.39392 3.8912z m206.06976-38.1952h-145.3056a25.31328 25.31328 0 0 1 0-50.64704h145.3056a25.31328 25.31328 0 0 1 0 50.64704z m-0.04096 0a25.35424 25.35424 0 0 1-21.77024-38.17472l38.13376-65.024a25.1904 25.1904 0 0 1 34.6112-8.97024c12.06272 7.04512 16.0768 22.54848 9.0112 34.6112l-38.15424 65.024c-4.7104 8.04864-13.14816 12.53376-21.83168 12.53376z m138.3424 38.1952c-6.57408 0-13.16864-2.58048-18.14528-7.72096l-100.16768-103.2192a25.33376 25.33376 0 0 1 36.29056-35.28704l100.16768 103.2192a25.37472 25.37472 0 0 1-18.14528 43.008z m-0.02048 0a25.33376 25.33376 0 0 1-21.9136-37.92896l29.57312-51.63008a25.23136 25.23136 0 0 1 34.52928-9.37984c12.12416 7.00416 16.30208 22.4256 9.33888 34.57024l-29.57312 51.63008c-4.66944 8.192-13.18912 12.73856-21.95456 12.73856z m276.39808-51.65056H738.9184a25.31328 25.31328 0 0 1 0-50.64704h246.784a25.31328 25.31328 0 0 1 0 50.64704zM955.33056 1008.2304H59.76064a55.9104 55.9104 0 0 1-55.82848-55.9104V70.8608A55.95136 55.95136 0 0 1 59.76064 14.9504h895.5904a55.95136 55.95136 0 0 1 55.84896 55.9104v881.41824a55.93088 55.93088 0 0 1-55.86944 55.9104zM59.76064 65.57696a5.20192 5.20192 0 0 0-5.24288 5.28384v881.41824c0 2.90816 2.3552 5.28384 5.24288 5.28384h895.5904a5.3248 5.3248 0 0 0 5.24288-5.28384V70.8608a5.28384 5.28384 0 0 0-5.26336-5.28384H59.76064z"
          fill="white"/>
</svg>