<?xml version="1.0" standalone="no"?><!DOCTYPE svg PUBLIC "-//W3C//DTD SVG 1.1//EN"
        "http://www.w3.org/Graphics/SVG/1.1/DTD/svg11.dtd">
<svg class="icon" width="200px" height="200.00px" viewBox="0 0 1024 1024" version="1.1"
     xmlns="http://www.w3.org/2000/svg">
    <path d="M686.933333 1024H682.666667c-21.333333-4.266667-38.4-21.333333-38.4-42.666667 0-140.8-115.2-256-256-256H341.333333c-140.8 0-256 115.2-256 256 0 25.6-17.066667 42.666667-42.666666 42.666667s-42.666667-17.066667-42.666667-42.666667c0-187.733333 153.6-341.333333 341.333333-341.333333h46.933334c132.266667 0 243.2 72.533333 302.933333 179.2l115.2-388.266667c4.266667-21.333333 25.6-34.133333 46.933333-25.6 21.333333 8.533333 34.133333 29.866667 29.866667 51.2L725.333333 994.133333c-4.266667 17.066667-21.333333 29.866667-38.4 29.866667zM349.866667 571.733333C226.133333 571.733333 128 469.333333 128 349.866667S230.4 128 349.866667 128s221.866667 102.4 221.866666 221.866667-98.133333 221.866667-221.866666 221.866666z m0-362.666666C273.066667 209.066667 213.333333 273.066667 213.333333 349.866667s64 136.533333 136.533334 136.533333 136.533333-64 136.533333-136.533333S426.666667 209.066667 349.866667 209.066667zM981.333333 230.4h-281.6c-25.6 0-42.666667-17.066667-42.666666-42.666667s17.066667-42.666667 42.666666-42.666666H981.333333c25.6 0 42.666667 17.066667 42.666667 42.666666s-17.066667 42.666667-42.666667 42.666667zM981.333333 85.333333H554.666667c-25.6 0-42.666667-17.066667-42.666667-42.666666s17.066667-42.666667 42.666667-42.666667h426.666666c25.6 0 42.666667 17.066667 42.666667 42.666667s-21.333333 42.666667-42.666667 42.666666z"
          fill="white"/>
</svg>