<?xml version="1.0" standalone="no"?><!DOCTYPE svg PUBLIC "-//W3C//DTD SVG 1.1//EN" "http://www.w3.org/Graphics/SVG/1.1/DTD/svg11.dtd"><svg class="icon" width="200px" height="200.00px" viewBox="0 0 1024 1024" version="1.1" xmlns="http://www.w3.org/2000/svg"><path d="M294.779259 808.011852H218.074074a48.260741 48.260741 0 0 1-47.407407-49.019259V572.871111a48.165926 48.165926 0 0 1 47.407407-49.303704h76.894815a48.165926 48.165926 0 0 1 46.364444 49.303704V758.518519a48.165926 48.165926 0 0 1-46.554074 49.493333z m-66.844444-56.888889h56.888889v-170.666667H227.555556zM483.555556 808.011852h-76.894815a49.777778 49.777778 0 0 1-46.933334-52.148148v-436.148148a49.777778 49.777778 0 0 1 46.933334-52.148149H483.555556a49.777778 49.777778 0 0 1 46.933333 52.148149v436.148148a49.777778 49.777778 0 0 1-46.933333 52.148148z m-66.844445-56.888889h56.888889v-426.666667h-56.888889zM672.331852 808.011852H595.437037a49.019259 49.019259 0 0 1-46.933333-50.820741V460.705185a49.114074 49.114074 0 0 1 46.933333-50.915555h76.894815a49.019259 49.019259 0 0 1 46.933333 50.915555v296.485926a49.019259 49.019259 0 0 1-46.933333 50.820741z m-66.844445-56.888889h56.888889v-284.444444h-56.888889zM861.013333 808.011852h-76.8a48.924444 48.924444 0 0 1-46.933333-50.346667V289.659259a48.82963 48.82963 0 0 1 46.933333-50.536296h76.894815a48.82963 48.82963 0 0 1 46.933333 50.536296V757.57037a48.82963 48.82963 0 0 1-47.028148 50.441482z m-66.844444-56.888889h56.888889v-455.111111h-56.888889z" fill="#1296db" /><path d="M938.666667 856.177778H113.777778V140.8A27.875556 27.875556 0 0 0 85.333333 113.777778a27.875556 27.875556 0 0 0-28.444444 27.022222v741.736296A28.444444 28.444444 0 0 0 85.333333 910.222222h853.333334a27.022222 27.022222 0 1 0 0-54.044444z" fill="#1296db" /></svg>