<?xml version="1.0" standalone="no"?><!DOCTYPE svg PUBLIC "-//W3C//DTD SVG 1.1//EN"
        "http://www.w3.org/Graphics/SVG/1.1/DTD/svg11.dtd">
<svg class="icon" width="200px" height="200.00px" viewBox="0 0 1024 1024" version="1.1"
     xmlns="http://www.w3.org/2000/svg">
    <path d="M392.6016 562.2784a30.72 30.72 0 0 1-30.72-30.72V333.7728a30.72 30.72 0 0 1 61.44 0v197.7856a30.72 30.72 0 0 1-30.72 30.72zM758.9888 589.9776a30.72 30.72 0 0 1 0-61.44 90.6752 90.6752 0 1 0 0-181.2992 30.72 30.72 0 0 1 0-61.44 152.1152 152.1152 0 1 1 0 304.1792z"
          fill="#1296db"/>
    <path d="M752.0256 100.864a84.4288 84.4288 0 0 0-79.4624-7.68L388.4544 211.5072H259.7888a142.592 142.592 0 0 0-142.4384 142.4896v162.3552a142.592 142.592 0 0 0 142.4384 142.4384h134.8096a30.72 30.72 0 1 0 0-61.44H259.7888a81.1008 81.1008 0 0 1-80.9984-80.9984V353.9968a81.1008 81.1008 0 0 1 80.9984-81.0496h134.8096a31.232 31.232 0 0 0 11.8272-2.3552L696.32 149.8624a23.1936 23.1936 0 0 1 32.0512 21.4016v536.1152a23.1936 23.1936 0 0 1-32.6144 21.1456l-157.1328-69.9392a30.72 30.72 0 0 0-24.9856 56.32L670.72 784.64a84.5824 84.5824 0 0 0 119.04-77.2608V171.264a84.3776 84.3776 0 0 0-37.7344-70.4z"
          fill="#1296db"/>
    <path d="M435.2 725.76a30.72 30.72 0 1 0-57.6 21.4528l27.1872 72.9088a37.4784 37.4784 0 1 1-70.1952 26.1632l-45.4656-122.1632a30.72 30.72 0 1 0-57.6 21.4528l45.5168 122.112a99.0208 99.0208 0 0 0 92.7744 64.4096 97.536 97.536 0 0 0 34.6624-6.2464A98.9184 98.9184 0 0 0 462.4384 798.72z"
          fill="#1296db"/>
</svg>